{"accessors" : [{"bufferView" : 0, "byteOffset" : 0, "componentType" : 5123, "count" : 11970, "type" : "SCALAR", "max" : [11969], "min" : [0]}, {"bufferView" : 1, "byteOffset" : 0, "componentType" : 5126, "count" : 11970, "type" : "VEC3", "max" : [563.9005737304688, 356.5191345214844, 181.5153045654297], "min" : [-561.7276000976562, 0, 181.5153045654297], "name" : "POSITION"}, {"bufferView" : 1, "byteOffset" : 12, "componentType" : 5126, "count" : 11970, "type" : "VEC3", "max" : [0.00021666954853571951, 3.199107254658884E-07, 1.0000044107437134], "min" : [-0.00022096159227658063, -7.352824127337954E-07, 1.0000042915344238], "name" : "NORMAL"}, {"bufferView" : 1, "byteOffset" : 24, "componentType" : 5126, "count" : 11970, "type" : "VEC2", "max" : [1, -0], "min" : [0, -1], "name" : "TEXCOORD_0"}, {"bufferView" : 0, "byteOffset" : 23940, "componentType" : 5123, "count" : 8208, "type" : "SCALAR", "max" : [8207], "min" : [0]}, {"bufferView" : 2, "byteOffset" : 0, "componentType" : 5126, "count" : 8208, "type" : "VEC3", "max" : [563.9005737304688, 356.5191345214844, 181.5153045654297], "min" : [-561.7276000976562, 0, 125.03998565673828], "name" : "POSITION"}, {"bufferView" : 2, "byteOffset" : 12, "componentType" : 5126, "count" : 8208, "type" : "VEC3", "max" : [1.0000044107437134, 1.0000044107437134, 0.7071114182472229], "min" : [-1.0000044107437134, -1.0000044107437134, -1.2487228559621144E-05], "name" : "NORMAL"}, {"bufferView" : 2, "byteOffset" : 24, "componentType" : 5126, "count" : 8208, "type" : "VEC2", "max" : [1, -0], "min" : [0, -1], "name" : "TEXCOORD_0"}, {"bufferView" : 0, "byteOffset" : 40356, "componentType" : 5123, "count" : 11970, "type" : "SCALAR", "max" : [11969], "min" : [0]}, {"bufferView" : 3, "byteOffset" : 0, "componentType" : 5126, "count" : 11970, "type" : "VEC3", "max" : [563.9005737304688, 356.5191345214844, 125.03998565673828], "min" : [-561.7276000976562, 0, 125.03998565673828], "name" : "POSITION"}, {"bufferView" : 3, "byteOffset" : 12, "componentType" : 5126, "count" : 11970, "type" : "VEC3", "max" : [0.00032545975409448147, 2.845202971002436E-07, -1.0000042915344238], "min" : [-0.00024788116570562124, -5.034985051111107E-08, -1.0000044107437134], "name" : "NORMAL"}, {"bufferView" : 3, "byteOffset" : 24, "componentType" : 5126, "count" : 11970, "type" : "VEC2", "max" : [1, -0], "min" : [0, -1], "name" : "TEXCOORD_0"}, {"bufferView" : 0, "byteOffset" : 64296, "componentType" : 5123, "count" : 36, "type" : "SCALAR", "max" : [35], "min" : [0]}, {"bufferView" : 4, "byteOffset" : 0, "componentType" : 5126, "count" : 36, "type" : "VEC3", "max" : [1, 1, 1], "min" : [-1, -1, -1], "name" : "POSITION"}, {"bufferView" : 4, "byteOffset" : 12, "componentType" : 5126, "count" : 36, "type" : "VEC3", "max" : [1.0000044107437134, 1.0000044107437134, 1.0000044107437134], "min" : [-1.0000044107437134, -1.0000044107437134, -1.0000044107437134], "name" : "NORMAL"}, {"bufferView" : 4, "byteOffset" : 24, "componentType" : 5126, "count" : 36, "type" : "VEC2", "max" : [0.875, -0], "min" : [0.125, -1], "name" : "TEXCOORD_0"}], "asset" : {"generator" : "Aspose.3D 21.9", "version" : "2.0"}, "buffers" : [{"uri" : "data:application/octet-stream;base64,", "byteLength" : 1094276}], "bufferViews" : [{"buffer" : 0, "byteOffset" : 0, "byteLength" : 64368, "target" : 34963}, {"buffer" : 0, "byteOffset" : 64372, "byteLength" : 383040, "byteStride" : 32, "target" : 34962}, {"buffer" : 0, "byteOffset" : 447416, "byteLength" : 262656, "byteStride" : 32, "target" : 34962}, {"buffer" : 0, "byteOffset" : 710076, "byteLength" : 383040, "byteStride" : 32, "target" : 34962}, {"buffer" : 0, "byteOffset" : 1093120, "byteLength" : 1152, "byteStride" : 32, "target" : 34962}], "cameras" : [{"perspective" : {"aspectRatio" : 1.5, "yfov" : 0.6911105513572693, "zfar" : 1500.0000953674316, "znear" : 1.5000001177191749}, "type" : "perspective", "name" : "NodeAttribute"}], "materials" : [{"name" : "", "pbrMetallicRoughness" : {"baseColorFactor" : [0.9646909832954407, 0.9646909832954407, 0.9646909832954407, 1], "metallicFactor" : 0, "roughnessFactor" : 0}, "emissiveFactor" : [0, 0, 0], "alphaMode" : "OPAQUE", "doubleSided" : false}, {"name" : "", "pbrMetallicRoughness" : {"baseColorFactor" : [0.9646909832954407, 0.9646909832954407, 0.9646909832954407, 1], "metallicFactor" : 0, "roughnessFactor" : 0}, "emissiveFactor" : [0, 0, 0], "alphaMode" : "OPAQUE", "doubleSided" : false}, {"name" : "", "pbrMetallicRoughness" : {"baseColorFactor" : [0.9646909832954407, 0.9646909832954407, 0.9646909832954407, 1], "metallicFactor" : 0, "roughnessFactor" : 0}, "emissiveFactor" : [0, 0, 0], "alphaMode" : "OPAQUE", "doubleSided" : false}], "meshes" : [{"primitives" : [{"attributes" : {"POSITION" : 1, "NORMAL" : 2, "TEXCOORD_0" : 3}, "indices" : 0, "material" : 0, "mode" : 4}, {"attributes" : {"POSITION" : 5, "NORMAL" : 6, "TEXCOORD_0" : 7}, "indices" : 4, "material" : 1, "mode" : 4}, {"attributes" : {"POSITION" : 9, "NORMAL" : 10, "TEXCOORD_0" : 11}, "indices" : 8, "material" : 2, "mode" : 4}], "name" : "Geometry"}, {"primitives" : [{"attributes" : {"POSITION" : 13, "NORMAL" : 14, "TEXCOORD_0" : 15}, "indices" : 12, "mode" : 4}], "name" : "Geometry"}], "nodes" : [{"camera" : 0, "matrix" : [-12.322194413554241, 2.5490200359907647, -8.164928064650713, 0, 0.8095531975980613, 14.601730338448707, 3.3367876713911575, 0, 8.515173348112025, 2.3004398928663834, -12.132593612296674, 0, 110.38337707519531, 74.37464141845703, 103.88687133789062, 1], "name" : "Model"}, {"matrix" : [1.5000001192092896, 0, 0, 0, 0, 1.5000001192092696, 2.4438102551979403E-07, 0, 0, -2.4438102551979403E-07, 1.5000001192092696, 0, 0, 1207.3082275390625, 385.99658203125, 1], "mesh" : 0, "name" : "Model"}, {"matrix" : [0.0001500000071246177, 0, 0, 0, 0, -2.443810310282896E-11, -0.00015000000712461572, 0, 0, 1.5000000530562631E-05, -2.443810280647797E-12, 0, 3.772080183029175, 1.6609383821487427, -0.038999322801828384, 1], "mesh" : 1, "name" : "Model"}], "scene" : 0, "scenes" : [{"nodes" : [0, 1, 2]}]}